<svg width="132" height="33" viewBox="0 0 132 33" fill="none" xmlns="http://www.w3.org/2000/svg">
<path d="M120.303 0.212252C122.72 0.215544 125.107 0.757495 127.292 1.79924C128.523 2.39926 129.578 3.31121 130.354 4.44572C131.13 5.58023 131.599 6.89835 131.717 8.27078C131.845 9.38597 131.911 10.5075 131.915 11.6302C131.966 15.4911 132.02 19.3589 131.998 23.2147C131.988 24.4503 131.851 25.6814 131.589 26.8884C131.32 28.2424 130.654 29.4838 129.676 30.4511C128.698 31.4183 127.453 32.0668 126.104 32.3123C124.539 32.6538 122.94 32.8129 121.339 32.7863C118.952 32.831 116.577 32.8413 114.199 32.7863C111.839 32.8114 109.486 32.5226 107.2 31.9276C105.945 31.6396 104.803 30.9827 103.919 30.04C103.034 29.0974 102.447 27.9114 102.232 26.6325C101.731 24.364 101.782 22.0069 102.381 19.7625C102.757 18.4637 103.469 17.2887 104.443 16.3575C105.417 15.4263 106.62 14.7723 107.927 14.4623C109.622 13.9706 111.376 13.7146 113.141 13.7015C116.55 13.6276 119.974 13.6225 123.387 13.6019C124.261 13.6019 125.136 13.6465 126.007 13.6654C126.217 13.6654 126.469 13.6895 126.445 13.3649C126.336 11.8604 126.312 10.3386 126.074 8.85467C125.943 8.12094 125.572 7.45232 125.021 6.95456C124.47 6.4568 123.77 6.1584 123.032 6.10672C121.445 5.81743 119.837 5.65317 118.224 5.61549C113.918 5.55195 109.61 5.59149 105.3 5.59149C104.355 5.59149 104.093 5.32874 104.089 4.37381C104.089 3.34331 104.089 2.31624 104.089 1.29261C104.089 0.461338 104.374 0.169378 105.192 0.169378C107.735 0.163653 110.277 0.163653 112.82 0.169378C112.82 0.169378 117.812 0.133248 120.303 0.212252ZM119.905 19.1047C119.905 19.1374 115.085 19.1631 112.676 19.2164C111.411 19.2157 110.165 19.5252 109.045 20.1181C108.588 20.3519 108.203 20.7092 107.936 21.1501C107.668 21.5911 107.527 22.0983 107.528 22.6153C107.511 23.0722 107.504 23.529 107.528 23.9893C107.522 24.5804 107.696 25.1591 108.028 25.6468C108.359 26.1345 108.832 26.5075 109.381 26.715C110.607 27.1399 111.902 27.3264 113.197 27.2646C116.225 27.3144 119.251 27.3023 122.277 27.2852C122.94 27.2716 123.6 27.2039 124.253 27.0825C124.895 26.9519 125.469 26.5928 125.87 26.0708C126.271 25.5489 126.472 24.8991 126.437 24.24C126.505 22.7115 126.486 21.1812 126.536 19.6509C126.549 19.2112 126.394 19.0978 125.978 19.1013C123.952 19.1133 121.931 19.1013 119.905 19.1013V19.1047Z" fill="white"/>
<path d="M49.5528 32.9928H41.7222C40.7249 32.9928 40.4214 32.6855 40.418 31.6876C40.4146 30.6897 40.418 29.6644 40.418 28.6562C40.418 27.8661 40.7078 27.5793 41.5023 27.5501C41.6727 27.5501 41.8246 27.5501 41.9865 27.5501C46.8932 27.5501 51.8015 27.5741 56.7082 27.5346C57.9953 27.5226 59.279 27.3302 60.5645 27.1911C60.8524 27.1482 61.1342 27.0704 61.4034 26.9592C62.1323 26.7892 62.7737 26.3554 63.2059 25.7402C63.6381 25.125 63.8309 24.3712 63.7476 23.6221C63.7476 23.2615 63.7476 22.906 63.7476 22.5454C63.7808 22.0445 63.6532 21.5462 63.3836 21.124C63.1141 20.7018 62.7168 20.3781 62.2507 20.2009C61.2764 19.7572 60.222 19.5199 59.1529 19.5037C56.1915 19.4367 53.2285 19.5036 50.2722 19.3714C47.7047 19.3656 45.1887 18.6446 43.0026 17.288C41.9695 16.609 41.1082 15.6966 40.4867 14.6232C39.8651 13.5499 39.5006 12.3452 39.4224 11.1051C39.1763 9.23699 39.4582 7.33682 40.2357 5.6228C40.8268 4.43851 41.6617 3.39478 42.6848 2.5611C43.7078 1.72743 44.8954 1.12295 46.1686 0.788044C47.8549 0.26406 49.6105 0.00170846 51.3752 0.0100129C56.0875 -0.00372707 60.7999 0.0100129 65.5156 0.0100129C66.5794 0.0100129 66.8793 0.308876 66.8793 1.35998C66.8793 2.41109 66.8793 3.42099 66.8793 4.44119C66.8793 5.3257 66.5895 5.61253 65.7149 5.61253C60.7447 5.61253 55.7726 5.61253 50.7989 5.61253C49.5685 5.57539 48.3422 5.77291 47.1846 6.19474C46.4635 6.41405 45.8376 6.87307 45.4088 7.49692C44.9799 8.12076 44.7735 8.87258 44.8233 9.62974C44.8233 9.90798 44.8233 10.1828 44.8233 10.461C44.8191 10.9533 44.9519 11.4368 45.2065 11.8569C45.4611 12.277 45.8275 12.6169 46.2641 12.838C47.4106 13.4534 48.6884 13.7788 49.9875 13.7861C52.9011 13.8565 55.8164 13.8393 58.7267 13.9063C60.556 13.9226 62.3696 14.2483 64.0919 14.8698C65.5487 15.3513 66.8231 16.2733 67.7416 17.5102C68.66 18.747 69.1782 20.2388 69.2254 21.7827C69.4127 23.5194 69.2283 25.2763 68.6849 26.9352C68.2361 28.2007 67.4855 29.3357 66.4991 30.2404C65.5127 31.1452 64.3208 31.7919 63.0282 32.1238C60.9955 32.7291 58.8837 33.022 56.7643 32.9928C54.3792 33.01 51.9652 32.9928 49.5528 32.9928Z" fill="white"/>
<path d="M5.44039 3.49145C6.22463 2.93155 6.86908 2.41975 7.56467 1.98351C9.23014 0.927411 11.1367 0.319471 13.1021 0.217894C15.8759 0.065037 18.6651 0.106252 21.4458 0.0839245C22.0902 0.0839245 22.3834 0.403432 22.3937 1.06123C22.405 2.21768 22.405 3.3747 22.3937 4.53229C22.411 4.6637 22.3982 4.7973 22.3564 4.92298C22.3146 5.04866 22.2447 5.16307 22.1523 5.25738C22.0598 5.3517 21.9471 5.42344 21.8229 5.46714C21.6987 5.51085 21.5662 5.52532 21.4355 5.50949C18.8782 5.57991 16.3209 5.67097 13.7636 5.69158C11.7782 5.74895 9.87302 6.4931 8.36815 7.79893C6.86328 9.10476 5.85051 10.8926 5.50007 12.8621C5.45818 13.2999 5.44678 13.7401 5.46596 14.1795C5.46596 19.948 5.46596 25.7165 5.46596 31.485C5.46287 31.7436 5.4349 32.0012 5.38243 32.2544C5.35926 32.4359 5.27005 32.6022 5.13209 32.7212C4.99413 32.8402 4.81724 32.9034 4.63569 32.8985C3.37181 32.9133 2.10906 32.9133 0.847454 32.8985C0.295074 32.8985 0.12117 32.4862 0.0308121 32.0293C0.00685796 31.8685 -0.00112448 31.7058 0.0069569 31.5434C0.0069569 21.5223 0.0069569 11.5001 0.0069569 1.47677C0.0106025 1.21764 0.0420286 0.959662 0.100713 0.707335C0.122219 0.534505 0.2067 0.375959 0.337755 0.262341C0.46881 0.148723 0.637092 0.0881865 0.809941 0.0925203C2.07325 0.0804979 3.33486 0.0719104 4.59818 0.0925203C5.10964 0.101108 5.35002 0.399952 5.39094 0.951269C5.41992 1.35832 5.43186 1.76536 5.44039 2.17241C5.44891 2.57945 5.44039 2.99338 5.44039 3.49145Z" fill="white"/>
<path d="M88.1862 18.7463V31.5073C88.1862 32.4588 87.927 32.7285 86.9808 32.737C86.0346 32.7456 85.0698 32.7491 84.1134 32.7285C83.353 32.7147 83.1007 32.4503 83.0649 31.698C83.0564 31.5022 83.0649 31.3064 83.0649 31.1123C83.0649 22.7676 83.0649 14.4222 83.0649 6.07631C83.0649 5.31203 83.065 5.31202 82.2995 5.31202H74.7179C73.8654 5.31202 73.5737 5.03379 73.5703 4.18019C73.5703 3.1703 73.5703 2.15699 73.5703 1.14711C73.5703 0.382819 73.8467 0.0839801 74.5934 0.0152802C74.7388 0.00792745 74.8842 0.00792745 75.0296 0.0152802C82.0435 0.0152802 89.0558 0.0152802 96.0663 0.0152802C96.2752 0.00961101 96.4841 0.024569 96.6902 0.0599368C97.3534 0.188749 97.5307 0.403394 97.5426 1.09039C97.554 2.14952 97.554 3.20924 97.5426 4.2695C97.5426 5.0252 97.2238 5.32061 96.4617 5.32061C93.9191 5.32061 91.3764 5.32061 88.8339 5.32061C88.1945 5.32061 88.1929 5.32059 88.1929 5.94748C88.1895 10.2092 88.1873 14.4755 88.1862 18.7463Z" fill="white"/>
<path d="M34.0796 16.5063V31.4244C34.0832 31.6687 34.0725 31.9131 34.0473 32.1561C34.046 32.2551 34.0251 32.3529 33.9861 32.4438C33.9471 32.5346 33.8907 32.6169 33.8201 32.6857C33.7494 32.7545 33.6658 32.8085 33.5743 32.8446C33.4828 32.8808 33.3851 32.8983 33.2869 32.8963C31.9912 32.9135 30.6954 32.9135 29.3997 32.8963C29.2093 32.8987 29.0257 32.8261 28.8877 32.6939C28.7498 32.5617 28.6686 32.3804 28.6615 32.1887C28.6324 31.9793 28.6176 31.7682 28.6172 31.5567C28.6172 21.5952 28.6172 11.6337 28.6172 1.6722C28.6172 0.196871 28.7399 0.0800781 30.1924 0.0800781C31.067 0.0800781 31.9417 0.0800781 32.8163 0.0800781C33.8392 0.0800781 34.0712 0.313722 34.0746 1.34766C34.0746 5.92765 34.0746 10.5076 34.0746 15.0876C34.0797 15.5617 34.0796 16.0322 34.0796 16.5063Z" fill="white"/>
</svg>
