<svg width="128" height="32" viewBox="0 0 128 32" fill="none" xmlns="http://www.w3.org/2000/svg">
<path d="M116.654 0.205821C118.998 0.209013 121.313 0.734541 123.432 1.74472C124.626 2.32656 125.649 3.21087 126.401 4.311C127.153 5.41113 127.608 6.68931 127.722 8.02015C127.847 9.10155 127.911 10.1891 127.914 11.2778C127.964 15.0217 128.016 18.7723 127.995 22.5112C127.986 23.7093 127.853 24.9032 127.598 26.0736C127.338 27.3866 126.692 28.5903 125.743 29.5283C124.795 30.4663 123.588 31.0951 122.28 31.3331C120.762 31.6643 119.212 31.8186 117.659 31.7928C115.345 31.8361 113.042 31.8461 110.735 31.7928C108.447 31.8171 106.165 31.5371 103.949 30.9601C102.732 30.6809 101.624 30.0438 100.766 29.1297C99.9089 28.2156 99.3396 27.0656 99.1314 25.8255C98.6452 23.6257 98.6948 21.34 99.2755 19.1637C99.6403 17.9042 100.33 16.7648 101.275 15.8618C102.22 14.9589 103.386 14.3247 104.653 14.0241C106.297 13.5473 107.998 13.2991 109.709 13.2863C113.015 13.2147 116.335 13.2097 119.645 13.1897C120.493 13.1897 121.341 13.233 122.186 13.2513C122.389 13.2513 122.634 13.2747 122.611 12.9599C122.505 11.501 122.482 10.0253 122.25 8.58635C122.123 7.87485 121.764 7.22649 121.23 6.74382C120.696 6.26114 120.017 5.97178 119.301 5.92166C117.762 5.64114 116.203 5.48187 114.639 5.44533C110.463 5.3837 106.285 5.42205 102.106 5.42205C101.19 5.42205 100.935 5.16726 100.932 4.24127C100.932 3.242 100.932 2.24605 100.932 1.25344C100.932 0.447358 101.208 0.164245 102.002 0.164245C104.467 0.158694 106.933 0.158694 109.398 0.164245C109.398 0.164245 114.239 0.12921 116.654 0.205821ZM116.269 18.5258C116.269 18.5574 111.595 18.5824 109.259 18.6341C108.032 18.6334 106.824 18.9336 105.738 19.5085C105.294 19.7352 104.922 20.0816 104.662 20.5092C104.402 20.9368 104.265 21.4287 104.267 21.93C104.25 22.373 104.244 22.816 104.267 23.2623C104.26 23.8355 104.429 24.3967 104.751 24.8696C105.073 25.3426 105.531 25.7043 106.064 25.9055C107.252 26.3175 108.508 26.4983 109.764 26.4384C112.7 26.4867 115.634 26.475 118.568 26.4583C119.211 26.4452 119.852 26.3795 120.484 26.2619C121.107 26.1352 121.664 25.7869 122.053 25.2808C122.442 24.7747 122.637 24.1445 122.602 23.5055C122.668 22.0232 122.65 20.5393 122.698 19.0554C122.711 18.629 122.561 18.5191 122.157 18.5224C120.193 18.5341 118.233 18.5224 116.269 18.5224V18.5258Z" fill="#1B2A3F"/>
<path d="M48.049 31.9931H40.4558C39.4886 31.9931 39.1943 31.6951 39.191 30.7275C39.1877 29.7599 39.191 28.7656 39.191 27.7879C39.191 27.0218 39.4721 26.7437 40.2425 26.7154C40.4078 26.7154 40.555 26.7154 40.7121 26.7154C45.47 26.7154 50.2296 26.7387 54.9876 26.7004C56.2357 26.6887 57.4806 26.5022 58.7271 26.3673C59.0062 26.3257 59.2794 26.2502 59.5406 26.1424C60.2473 25.9775 60.8693 25.5569 61.2884 24.9603C61.7075 24.3637 61.8945 23.6328 61.8137 22.9064C61.8137 22.5567 61.8137 22.212 61.8137 21.8623C61.8459 21.3766 61.7222 20.8934 61.4608 20.484C61.1994 20.0746 60.8142 19.7607 60.3621 19.5889C59.4174 19.1586 58.3949 18.9286 57.3582 18.9128C54.4866 18.8478 51.6133 18.9127 48.7467 18.7845C46.2569 18.7789 43.8172 18.0797 41.6973 16.7643C40.6956 16.1058 39.8603 15.221 39.2576 14.1802C38.6549 13.1394 38.3015 11.9712 38.2256 10.7687C37.987 8.9572 38.2604 7.11461 39.0143 5.45253C39.5875 4.30412 40.3971 3.29202 41.3891 2.48361C42.3812 1.6752 43.5328 1.08904 44.7674 0.764283C46.4026 0.256177 48.105 0.00177506 49.8162 0.00982786C54.3857 -0.00349576 58.9553 0.00982786 63.5281 0.00982786C64.5597 0.00982786 64.8505 0.299634 64.8505 1.31889C64.8505 2.33815 64.8505 3.31744 64.8505 4.30672C64.8505 5.16443 64.5695 5.44257 63.7214 5.44257C58.9018 5.44257 54.0804 5.44257 49.2574 5.44257C48.0643 5.40655 46.8751 5.5981 45.7526 6.00714C45.0534 6.2198 44.4464 6.66492 44.0306 7.26985C43.6148 7.87479 43.4145 8.60384 43.4629 9.33805C43.4629 9.60785 43.4629 9.87434 43.4629 10.1441C43.4588 10.6215 43.5875 11.0903 43.8344 11.4977C44.0813 11.9051 44.4367 12.2347 44.86 12.4491C45.9718 13.0458 47.2109 13.3614 48.4706 13.3684C51.2959 13.4367 54.1229 13.4201 56.9449 13.485C58.7188 13.5008 60.4775 13.8166 62.1475 14.4193C63.5603 14.8863 64.796 15.7803 65.6866 16.9797C66.5773 18.1791 67.0797 19.6256 67.1255 21.1228C67.3071 22.8068 67.1284 24.5105 66.6014 26.1191C66.1662 27.3463 65.4383 28.4469 64.4818 29.3242C63.5254 30.2015 62.3696 30.8286 61.1161 31.1505C59.145 31.7374 57.0972 32.0215 55.0421 31.9931C52.7292 32.0098 50.3883 31.9931 48.049 31.9931Z" fill="#1B2A3F"/>
<path d="M5.27376 3.38613C6.03423 2.84319 6.65915 2.3469 7.33366 1.92387C8.94866 0.899781 10.7975 0.310263 12.7033 0.211765C15.3931 0.0635397 18.0977 0.103506 20.7941 0.0818548C21.419 0.0818548 21.7034 0.39168 21.7133 1.02955C21.7243 2.15095 21.7243 3.27291 21.7133 4.39542C21.7301 4.52285 21.7177 4.6524 21.6772 4.77427C21.6366 4.89615 21.5689 5.00709 21.4792 5.09854C21.3895 5.19 21.2803 5.25957 21.1598 5.30195C21.0394 5.34432 20.9109 5.35836 20.7842 5.34301C18.3044 5.4113 15.8246 5.4996 13.3447 5.51958C11.4196 5.57521 9.57206 6.29682 8.11279 7.56307C6.65352 8.82933 5.67145 10.563 5.33162 12.4728C5.29101 12.8973 5.27995 13.3242 5.29855 13.7503C5.29855 19.344 5.29855 24.9377 5.29855 30.5314C5.29556 30.7821 5.26843 31.032 5.21755 31.2775C5.19509 31.4534 5.10858 31.6147 4.9748 31.7301C4.84102 31.8455 4.66949 31.9068 4.49344 31.902C3.26786 31.9164 2.04338 31.9164 0.82 31.902C0.284359 31.902 0.115725 31.5022 0.0281046 31.0592C0.00487642 30.9033 -0.00286412 30.7455 0.00497237 30.588C0.00497237 20.8706 0.00497237 11.1521 0.00497237 1.43249C0.00850745 1.18121 0.0389813 0.931055 0.095887 0.686374C0.116742 0.518781 0.198663 0.36504 0.325747 0.254865C0.45283 0.14469 0.616012 0.0859877 0.783624 0.0901902C2.00865 0.078532 3.23203 0.0702048 4.45706 0.0901902C4.95303 0.0985174 5.18612 0.388306 5.2258 0.922916C5.25391 1.31763 5.26549 1.71234 5.27376 2.10705C5.28202 2.50176 5.27376 2.90315 5.27376 3.38613Z" fill="#1B2A3F"/>
<path d="M85.5125 18.1785V30.5528C85.5125 31.4755 85.2611 31.737 84.3436 31.7453C83.4261 31.7536 82.4905 31.757 81.5631 31.737C80.8257 31.7237 80.5811 31.4672 80.5464 30.7377C80.5381 30.5479 80.5464 30.358 80.5464 30.1698C80.5464 22.0779 80.5464 13.9855 80.5464 5.89248C80.5464 5.15135 80.5464 5.15134 79.8041 5.15134H72.4522C71.6256 5.15134 71.3428 4.88154 71.3395 4.05381C71.3395 3.07453 71.3395 2.09193 71.3395 1.11264C71.3395 0.371514 71.6075 0.0817311 72.3316 0.015113C72.4726 0.00798315 72.6136 0.00798315 72.7546 0.015113C79.5559 0.015113 86.3557 0.015113 93.1537 0.015113C93.3563 0.00961569 93.5589 0.0241204 93.7588 0.0584164C94.4019 0.183325 94.5738 0.391466 94.5854 1.05765C94.5964 2.08468 94.5964 3.11228 94.5854 4.14042C94.5854 4.87322 94.2762 5.15968 93.5372 5.15968C91.0717 5.15968 88.606 5.15968 86.1405 5.15968C85.5205 5.15968 85.5189 5.15966 85.5189 5.76755C85.5156 9.90009 85.5136 14.0371 85.5125 18.1785Z" fill="#1B2A3F"/>
<path d="M33.0444 16.0066V30.4726C33.048 30.7095 33.0376 30.9465 33.0131 31.1822C33.0118 31.2782 32.9916 31.373 32.9538 31.4611C32.916 31.5492 32.8613 31.629 32.7928 31.6957C32.7242 31.7624 32.6432 31.8147 32.5544 31.8498C32.4657 31.8849 32.371 31.9019 32.2757 31.8999C31.0193 31.9166 29.7628 31.9166 28.5064 31.8999C28.3218 31.9022 28.1436 31.8318 28.0099 31.7036C27.8762 31.5754 27.7974 31.3996 27.7905 31.2138C27.7623 31.0107 27.7479 30.806 27.7476 30.6009C27.7476 20.9413 27.7476 11.2816 27.7476 1.622C27.7476 0.191379 27.8665 0.078125 29.275 0.078125C30.1231 0.078125 30.9713 0.078125 31.8194 0.078125C32.8114 0.078125 33.0363 0.304688 33.0396 1.30729C33.0396 5.7485 33.0396 10.1897 33.0396 14.6309C33.0445 15.0906 33.0444 15.5469 33.0444 16.0066Z" fill="#1B2A3F"/>
</svg>
