<svg width="19" height="19" viewBox="0 0 19 19" fill="none" xmlns="http://www.w3.org/2000/svg">
<path d="M9.02447 0.858178C9.17415 0.397522 9.82585 0.397523 9.97553 0.858179L11.8574 6.64998C11.9243 6.85599 12.1163 6.99547 12.3329 6.99547H18.4228C18.9071 6.99547 19.1085 7.61527 18.7167 7.89997L13.7899 11.4795C13.6146 11.6068 13.5413 11.8325 13.6082 12.0385L15.4901 17.8303C15.6398 18.291 15.1125 18.674 14.7207 18.3893L9.79389 14.8098C9.61865 14.6825 9.38135 14.6825 9.20611 14.8098L4.27931 18.3893C3.88745 18.674 3.36021 18.291 3.50989 17.8303L5.39176 12.0385C5.4587 11.8325 5.38537 11.6068 5.21012 11.4795L0.283326 7.89997C-0.10853 7.61527 0.0928586 6.99547 0.57722 6.99547H6.66708C6.88369 6.99547 7.07567 6.85599 7.1426 6.64997L9.02447 0.858178Z" fill="#00C141"/>
</svg>
